<svg width="16" height="12" fill="none" xmlns="http://www.w3.org/2000/svg"><path d="M15.335 2.532a1.887 1.887 0 00-1.324-1.336A44.377 44.377 0 008.161.88a44.376 44.376 0 00-5.852.316A1.881 1.881 0 00.985 2.532C.77 3.732.665 4.949.672 6.168A19.826 19.826 0 00.985 9.8a1.86 1.86 0 001.324 1.313c1.942.234 3.896.34 5.851.316 1.955.024 3.91-.082 5.851-.316A1.853 1.853 0 0015.335 9.8c.216-1.2.32-2.417.313-3.636a19.831 19.831 0 00-.313-3.632zM6.63 8.397V3.936l3.914 2.232L6.63 8.397z" fill="#6B7481"/></svg>